<svg version="1.1" id="Layer_1" xmlns="http://www.w3.org/2000/svg" xmlns:xlink="http://www.w3.org/1999/xlink" x="0px" y="0px" viewBox="0 0 752.6 163.5" style="enable-background:new 0 0 752.6 163.5;" xml:space="preserve">
 <style type="text/css">
  .st0{clip-path:url(#SVGID_2_);}
	.st1{fill:url(#SVGID_3_);}
	.st2{opacity:0.8;}
	.st3{opacity:0.51;fill:url(#SVGID_4_);enable-background:new    ;}
	.st4{opacity:0.51;fill:url(#SVGID_5_);enable-background:new    ;}
	.st5{opacity:0.7;}
	.st6{opacity:0.7;fill:url(#SVGID_6_);enable-background:new    ;}
	.st7{opacity:0.7;fill:url(#SVGID_7_);enable-background:new    ;}
 </style>
 <g>
  <defs>
   <rect id="SVGID_1_" width="752.6" height="163.5">
   </rect>
  </defs>
  <clipPath id="SVGID_2_">
   <use href="#SVGID_1_" style="overflow:visible;">
   </use>
  </clipPath>
  <g class="st0">
   <path d="M245.3,85.8c0-6.9-1.8-11.8-5.3-14.5c-3.5-2.7-8.6-4.1-15.3-4.1c-4.1,0-8,0.3-11.6,1c-3.6,0.6-7.1,1.5-10.5,2.6
			c-2.2-3.9-3.4-8.5-3.4-13.9c4-1.3,8.4-2.3,13.2-3c4.8-0.7,9.5-1.1,13.9-1.1c11.8,0,20.7,2.7,26.8,8c6.1,5.4,9.2,13.9,9.2,25.6
			v56.4c-4.1,0.9-9.1,1.9-15,2.9c-5.9,1-11.9,1.5-18,1.5c-5.8,0-11-0.5-15.6-1.6c-4.6-1.1-8.6-2.8-11.8-5.1c-3.2-2.4-5.7-5.4-7.5-9
			c-1.8-3.6-2.6-8.1-2.6-13.2c0-5.1,1-9.5,3.1-13.3c2.1-3.8,4.9-7,8.4-9.5c3.5-2.5,7.6-4.4,12.2-5.6c4.6-1.2,9.4-1.9,14.5-1.9
			c3.8,0,6.9,0.1,9.3,0.3c2.4,0.2,4.4,0.4,6.1,0.6L245.3,85.8L245.3,85.8z M245.3,103c-1.8-0.2-4-0.5-6.7-0.7
			c-2.7-0.2-5-0.4-6.9-0.4c-7.3,0-12.9,1.4-16.7,4.1c-3.8,2.7-5.7,6.8-5.7,12.3c0,3.5,0.6,6.3,1.9,8.3c1.3,2,2.9,3.5,4.9,4.6
			c1.9,1.1,4.1,1.7,6.4,1.9c2.4,0.2,4.6,0.4,6.7,0.4c2.7,0,5.5-0.1,8.4-0.4c2.9-0.3,5.4-0.7,7.7-1.3V103L245.3,103z">
   </path>
   <path d="M287.9,16.4c1.3-0.2,2.7-0.4,4.3-0.5c1.6-0.1,3-0.2,4.3-0.2c1.3,0,2.8,0.1,4.4,0.2c1.6,0.1,3.1,0.3,4.4,0.5v128.9
			c-1.3,0.2-2.8,0.4-4.4,0.5c-1.6,0.1-3.1,0.2-4.4,0.2c-1.3,0-2.7-0.1-4.3-0.2c-1.6-0.1-3-0.3-4.3-0.5V16.4z M305.7,98.5L338.9,55
			c1.5-0.2,3.1-0.4,4.6-0.5c1.5-0.1,3.1-0.2,4.8-0.2c1.8,0,3.4,0.1,5,0.2c1.6,0.1,3.2,0.3,4.9,0.5L325,97.2l38.1,48
			c-1.6,0.2-3.2,0.4-4.8,0.5c-1.5,0.1-3.1,0.2-4.8,0.2c-1.6,0-3.3-0.1-4.9-0.2c-1.6-0.1-3.3-0.3-4.9-0.5L305.7,98.5z">
   </path>
   <path d="M388.8,104.5c0.2,9.9,2.8,17,7.7,21.6c4.9,4.6,12.1,6.9,21.6,6.9c8.3,0,16.3-1.5,23.8-4.4c0.9,1.8,1.7,3.9,2.3,6.4
			c0.6,2.5,0.9,5,1.1,7.5c-3.9,1.6-8.1,2.9-12.8,3.7c-4.6,0.8-9.8,1.2-15.4,1.2c-8.2,0-15.3-1.1-21.2-3.4
			c-5.9-2.3-10.7-5.5-14.6-9.7c-3.8-4.2-6.6-9.1-8.4-14.8c-1.8-5.7-2.6-12-2.6-18.7c0-6.7,0.9-13,2.6-18.7
			c1.7-5.8,4.3-10.9,7.9-15.2c3.5-4.3,8-7.7,13.3-10.2c5.3-2.5,11.7-3.8,19-3.8c6.2,0,11.7,1.1,16.4,3.2c4.7,2.1,8.6,5,11.8,8.7
			c3.2,3.7,5.6,8.1,7.2,13.2c1.6,5.1,2.5,10.7,2.5,16.6c0,1.7-0.1,3.4-0.2,5.2c-0.1,1.8-0.2,3.4-0.4,4.7H388.8L388.8,104.5z
			 M433.7,91.5c0-3.3-0.4-6.4-1.3-9.4c-0.9-3-2.2-5.6-3.9-7.9c-1.7-2.2-3.9-4-6.5-5.4c-2.6-1.4-5.8-2-9.4-2
			c-7.2,0-12.7,2.2-16.5,6.5c-3.8,4.4-6.1,10.4-7,18.1H433.7L433.7,91.5z">
   </path>
   <path d="M473.9,55.1c1.3-0.2,2.6-0.4,3.8-0.5c1.2-0.1,2.5-0.2,3.8-0.2s2.5,0.1,3.6,0.2c1.1,0.1,2.3,0.3,3.6,0.5
			c0.4,1.8,0.7,4.1,1.1,7.1c0.4,3,0.5,5.5,0.5,7.5c1.2-2,2.7-4,4.5-6c1.8-2,3.9-3.8,6.3-5.4c2.4-1.6,5.1-2.9,8.1-3.9
			c3.1-1,6.4-1.5,10.1-1.5c10.4,0,18,3,22.9,8.9c4.9,5.9,7.4,14.7,7.4,26.3v57.1c-1.3,0.2-2.8,0.4-4.4,0.5c-1.6,0.1-3.1,0.2-4.4,0.2
			c-1.3,0-2.7-0.1-4.3-0.2c-1.6-0.1-3-0.3-4.3-0.5V92.8c0-8.3-1.3-14.5-3.9-18.3c-2.6-3.9-6.7-5.9-12.4-5.9c-3.3,0-6.4,0.6-9.3,1.8
			c-2.9,1.2-5.5,3-7.8,5.5c-2.2,2.5-4,5.7-5.4,9.6c-1.4,3.9-2,8.7-2,14.2v45.7c-1.3,0.2-2.7,0.4-4.3,0.5c-1.6,0.1-3,0.2-4.3,0.2
			c-1.3,0-2.8-0.1-4.4-0.2c-1.6-0.1-3.1-0.3-4.4-0.5V55.1H473.9z">
   </path>
   <path d="M588.8,104.5c0.2,9.9,2.8,17,7.7,21.6c4.9,4.6,12.1,6.9,21.6,6.9c8.3,0,16.3-1.5,23.8-4.4c0.9,1.8,1.7,3.9,2.3,6.4
			c0.6,2.5,0.9,5,1.1,7.5c-3.9,1.6-8.1,2.9-12.8,3.7c-4.6,0.8-9.8,1.2-15.4,1.2c-8.2,0-15.3-1.1-21.2-3.4
			c-5.9-2.3-10.7-5.5-14.6-9.7c-3.8-4.2-6.6-9.1-8.4-14.8c-1.8-5.7-2.6-12-2.6-18.7c0-6.7,0.8-13,2.6-18.7
			c1.7-5.8,4.3-10.9,7.9-15.2c3.5-4.3,8-7.7,13.3-10.2c5.4-2.5,11.7-3.8,19-3.8c6.2,0,11.7,1.1,16.4,3.2c4.7,2.1,8.6,5,11.8,8.7
			c3.2,3.7,5.6,8.1,7.2,13.2c1.6,5.1,2.5,10.7,2.5,16.6c0,1.7-0.1,3.4-0.2,5.2c-0.1,1.8-0.2,3.4-0.4,4.7H588.8L588.8,104.5z
			 M633.6,91.5c0-3.3-0.4-6.4-1.3-9.4c-0.9-3-2.2-5.6-3.9-7.9c-1.7-2.2-3.9-4-6.5-5.4c-2.6-1.4-5.8-2-9.4-2
			c-7.2,0-12.7,2.2-16.5,6.5c-3.8,4.4-6.1,10.4-7,18.1H633.6L633.6,91.5z">
   </path>
   <path d="M710.4,147.4c-7.1,0-13.2-1.2-18.5-3.6c-5.3-2.4-9.7-5.7-13.2-10c-3.5-4.2-6.1-9.2-7.8-15c-1.7-5.8-2.6-12-2.6-18.6
			c0-6.7,0.9-12.9,2.6-18.6c1.7-5.8,4.3-10.8,7.8-15c3.5-4.2,7.9-7.6,13.2-10.1c5.3-2.5,11.5-3.7,18.5-3.7c7.1,0,13.2,1.2,18.5,3.7
			c5.3,2.5,9.7,5.8,13.2,10.1c3.5,4.2,6.1,9.2,7.9,15c1.7,5.8,2.6,12,2.6,18.6c0,6.7-0.9,12.9-2.6,18.6c-1.7,5.8-4.3,10.8-7.9,15
			c-3.5,4.2-7.9,7.6-13.2,10C723.7,146.2,717.5,147.4,710.4,147.4z M710.4,133.5c8.1,0,14.1-2.9,18-8.8c3.9-5.9,5.8-14.1,5.8-24.4
			c0-10.5-1.9-18.5-5.8-24.3c-3.9-5.8-9.9-8.7-18-8.7c-8.1,0-14.1,2.9-17.9,8.7c-3.8,5.8-5.7,14-5.7,24.3c0,10.5,1.9,18.5,5.7,24.4
			C696.3,130.6,702.3,133.5,710.4,133.5z">
   </path>
   <linearGradient id="SVGID_3_" gradientUnits="userSpaceOnUse" x1="22.0135" y1="32.621" x2="156.8032" y2="104.9232" gradientTransform="matrix(1 0 0 -1 0 164.4613)">
    <stop offset="4.294480e-02" style="stop-color:#5C257E">
    </stop>
    <stop offset="0.9693" style="stop-color:#8C509A">
    </stop>
   </linearGradient>
   <path class="st1" d="M124.2,159.3c0.6,2,1.1,3.3,1.3,3.8c0.1,0-0.1,0,0,0c-3-42.5,21.7-59.3,30.4-87.2c0.1-0.4,0.2-0.9,0.3-1.4
			c0.2-0.6,0.3-1.3,0.4-1.9c1.4-7.8-1.5-16.9-7.2-26.5c0-0.1-0.1-0.1-0.1-0.2c-0.5-0.8-1-1.6-1.5-2.4c-0.9-1.5-2-3-3-4.5
			c-0.1-0.1-0.2-0.3-0.3-0.5c-0.3-0.4-0.6-0.8-0.9-1.2c-0.3-0.4-0.6-0.8-0.9-1.3c-0.3-0.4-0.6-0.8-1-1.2c-0.3-0.4-0.7-0.8-1-1.3
			c-0.2-0.3-0.5-0.6-0.7-0.9c-9.2-11.3-21.2-22.4-33.8-32.3c0,0-0.1-0.1,0,0c1.2,15.9,0.9,32-1.1,44.7c-2.3,15.3-8.5,33-16.7,48.9
			c-17.9-2.1-36-6.8-50.1-13.4c-11.8-5.5-25.2-14-37.9-23.9c0.1,1.3,0.2,2.7,0.3,4c0,0.4,0.1,0.8,0.1,1.2c0.1,1,0.2,1.9,0.3,2.8
			c0,0.4,0.1,0.9,0.1,1.3c0.1,1,0.2,1.9,0.3,2.8c0,0.4,0.1,0.8,0.1,1.2c0.2,1.2,0.3,2.4,0.5,3.6c0,0.1,0,0.2,0,0.4
			c0.2,1.4,0.4,2.8,0.6,4.1c0,0.1,0,0.2,0.1,0.3c0.2,1.2,0.4,2.4,0.6,3.7c0,0.3,0.1,0.5,0.1,0.7c0.2,1.1,0.4,2.2,0.6,3.3
			c0.1,0.2,0.1,0.4,0.1,0.6c0.3,1.3,0.5,2.5,0.8,3.8c0.9,4,2,7.9,3.1,11.6c0,0.1,0,0.1,0,0.1c1.9,6.2,4.2,12,6.7,17
			c0.4,0.7,0.8,1.5,1.1,2.2v0.1c0.3,0.6,0.7,1.3,1.1,1.9c0,0,0,0,0,0.1c0.4,0.7,0.8,1.3,1.2,1.9c0.1,0.1,0.1,0.2,0.2,0.2
			c0.5,0.8,1.1,1.6,1.6,2.3c0.1,0.1,0.2,0.2,0.3,0.4l0.1,0.1c0.6,0.8,1.3,1.6,1.9,2.4c0.5,0.5,0.9,1,1.4,1.5
			c0.2,0.2,0.4,0.4,0.6,0.6c0.3,0.3,0.6,0.6,0.9,0.9c0.2,0.2,0.4,0.4,0.7,0.6c0.3,0.3,0.6,0.5,0.9,0.7c0.2,0.2,0.5,0.4,0.7,0.5
			c0.3,0.2,0.6,0.5,0.9,0.7c0.2,0.2,0.5,0.3,0.7,0.5c0.3,0.2,0.6,0.4,1,0.6c0.2,0.1,0.5,0.3,0.7,0.4c0.4,0.2,0.7,0.4,1.1,0.5
			c0.2,0.1,0.4,0.2,0.6,0.3c0.6,0.3,1.2,0.5,1.7,0.7c0.4,0.1,0.7,0.3,1,0.4c28.1,8.4,56.1-2.5,89.9,23.3">
   </path>
   <g class="st2">
    <linearGradient id="SVGID_4_" gradientUnits="userSpaceOnUse" x1="156.1829" y1="24.8815" x2="87.2912" y2="154.0238" gradientTransform="matrix(1 0 0 -1 0 164.4613)">
     <stop offset="4.294480e-02" style="stop-color:#5C257E">
     </stop>
     <stop offset="1" style="stop-color:#FFFFFF">
     </stop>
    </linearGradient>
    <path class="st3" d="M105.1,45c-2.3,15.3-8.5,33-16.7,48.9c31.7,3.7,62.5-1.1,67.8-19.5c5.8-20.1-20.4-51-50-74.1
				C107.3,16.4,107,32.2,105.1,45z">
    </path>
    <linearGradient id="SVGID_5_" gradientUnits="userSpaceOnUse" x1="88.6759" y1="-11.1238" x2="19.7842" y2="118.0189" gradientTransform="matrix(1 0 0 -1 0 164.4613)">
     <stop offset="4.294480e-02" style="stop-color:#5C257E">
     </stop>
     <stop offset="1" style="stop-color:#FFFFFF">
     </stop>
    </linearGradient>
    <path class="st4" d="M38.4,80.5c-11.8-5.5-25.2-14-37.9-23.9c2.8,37.4,14.1,76.2,34.1,82.6c18.3,5.8,39.4-17,53.9-45.4
				C70.6,91.9,52.5,87.1,38.4,80.5z">
    </path>
   </g>
   <g class="st5">
    <linearGradient id="SVGID_6_" gradientUnits="userSpaceOnUse" x1="32.2556" y1="94.8228" x2="85.8901" y2="-5.7192" gradientTransform="matrix(1 0 0 -1 0 164.4613)">
     <stop offset="0.2331" style="stop-color:#4F256F">
     </stop>
     <stop offset="0.8405" style="stop-color:#5C257E">
     </stop>
    </linearGradient>
    <path class="st6" d="M63.6,115.9C16.9,98.7,0.5,56.6,0.5,56.6c1.7,22.9,6.6,46.3,14.8,62.6c0.4,0.7,0.7,1.4,1.1,2.1
				c0,0.1,0.1,0.1,0.1,0.2c0.4,0.6,0.7,1.3,1.1,1.9c0,0.1,0.1,0.2,0.2,0.2c0.4,0.6,0.7,1.2,1.1,1.8c0.1,0.1,0.1,0.2,0.2,0.2
				c0.4,0.6,0.7,1.1,1.1,1.7c0.3,0.4,0.5,0.7,0.7,1c0.1,0.1,0.1,0.2,0.2,0.3c0.2,0.2,0.4,0.5,0.5,0.7c0.4,0.6,0.9,1.1,1.3,1.6
				c3.5,4.1,7.5,7.1,11.8,8.5c0.4,0.1,0.7,0.3,1,0.4c28.1,8.4,56.1-2.5,89.9,23.3C122.9,159.6,98.9,129.1,63.6,115.9z">
    </path>
    <linearGradient id="SVGID_7_" gradientUnits="userSpaceOnUse" x1="99.746" y1="130.8189" x2="153.3794" y2="30.2785" gradientTransform="matrix(1 0 0 -1 0 164.4613)">
     <stop offset="0.2331" style="stop-color:#4F256F">
     </stop>
     <stop offset="0.8405" style="stop-color:#5C257E">
     </stop>
    </linearGradient>
    <path class="st7" d="M156.2,74.4c5.8-20.1-20.4-51-50-74.1c0,0,25.8,37,14.3,85.3c-8.9,37.3,4,74.6,5,77.4c0.1,0-0.1,0,0,0
				c-3-42.5,21.7-59.3,30.4-87.2C155.9,75.4,156,74.9,156.2,74.4z">
    </path>
   </g>
  </g>
 </g>
</svg>