<svg width="156" height="24" viewBox="0 0 156 24" fill="none" xmlns="http://www.w3.org/2000/svg">
<path fill-rule="evenodd" clip-rule="evenodd" d="M13.3506 14.7897C13.5609 14.5793 13.5609 14.2251 13.3506 14.0148C13.3506 14.0148 9.3321 9.98524 9.30996 9.98524C9.19926 9.87454 9.14391 9.7417 9.14391 9.59778C9.15498 9.45387 9.21033 9.32103 9.30996 9.21033L17.5683 0.95203C17.679 0.841329 17.7454 0.708488 17.7454 0.542436C17.7454 0.243543 17.5018 0 17.203 0H9.16605C9.02214 0 8.87823 0.0664207 8.7786 0.166052L0.453875 8.49077C0.177122 8.7786 0 9.16605 0 9.59778C0 10.0295 0.166052 10.4059 0.442804 10.6937L8.5572 18.8081C8.76753 19.0184 9.12177 19.0184 9.3321 18.8081L13.3506 14.7897ZM18.8856 9.21038C18.6753 9.42071 18.6753 9.77495 18.8856 9.98528L22.9262 14.0148C23.0258 14.1255 23.0812 14.2583 23.0812 14.4023C23.0812 14.5462 23.0369 14.6901 22.9262 14.7897L14.6679 23.048C14.5572 23.1476 14.4908 23.2916 14.4908 23.4576C14.4908 23.7565 14.7343 24 15.0332 24H23.0701C23.214 24 23.3579 23.9336 23.4576 23.834L31.7823 15.5093C32.059 15.2214 32.2362 14.834 32.2362 14.4023C32.2362 13.9705 32.059 13.5941 31.7934 13.3063L23.679 5.19193C23.4686 4.9816 23.1144 4.9816 22.9041 5.19193L18.8856 9.21038ZM51.3875 6.11071C50.0258 5.63469 47.9114 5.2251 46.107 5.2251C42.8413 5.2251 40.7823 6.77492 40.7823 9.35425C40.7823 11.6347 42.1439 12.5867 45.0664 13.1956C45.2345 13.2305 45.4009 13.2638 45.5641 13.2964C47.0028 13.5839 48.1993 13.823 48.1993 14.7675C48.1993 15.5203 47.4686 15.8967 46.0849 15.8856C44.9336 15.8635 43.2177 15.5535 41.1255 14.7675L40.3948 17.6347C42.4317 18.3985 44.5461 18.7638 46.2177 18.7638C49.5055 18.7638 51.6753 17.3469 51.6753 14.5572C51.6753 12.0443 49.893 11.1919 47.203 10.6162C47.0798 10.5904 46.9601 10.5656 46.844 10.5416L46.8423 10.5412L46.8419 10.5412C45.2179 10.2048 44.3026 10.0152 44.3026 9.19927C44.3026 8.39115 44.9889 8.04798 46.1292 8.04798C47.2472 8.04798 48.8745 8.35794 50.7011 8.91145L51.3875 6.11071ZM55.4501 5.59041C56.9889 5.51292 58.7047 5.43542 60.487 5.43542C63.9409 5.43542 66.166 7.02952 66.166 10.0849C66.166 13.0627 63.9298 14.9447 60.476 14.9447H58.6715V18.4317H55.4501V5.59041ZM58.6826 8.12546V12.1218H60.6752C62.0036 12.1218 62.9446 11.3801 62.9446 10.107C62.9446 8.80074 62.0036 8.09225 60.6752 8.09225C60.011 8.09225 59.3357 8.10332 58.6826 8.12546ZM92.0922 5.59045V13.0185L86.0369 5.59045H83.059V18.4318H86.2804V11.0702L92.3468 18.4318H95.3026V5.59045H92.0922ZM99.5867 5.5793C101.004 5.50181 102.642 5.42432 104.446 5.42432C108.697 5.42432 111.554 7.8376 111.542 11.9335C111.542 16.0627 108.686 18.5977 104.768 18.5977C102.83 18.5977 101.004 18.5203 99.5867 18.4428V5.5793ZM102.819 15.642C103.494 15.6752 104.203 15.6752 104.856 15.6752C106.716 15.6752 108.21 14.2361 108.221 11.9003C108.221 9.61989 106.727 8.31361 104.59 8.31361C104.026 8.31361 103.417 8.31361 102.819 8.34682V15.642ZM139.417 6.11071C138.055 5.63469 135.941 5.2251 134.136 5.2251C130.871 5.2251 128.812 6.77492 128.812 9.35425C128.812 11.6347 130.173 12.5867 133.096 13.1956C133.264 13.2305 133.43 13.2638 133.594 13.2964C135.032 13.5839 136.229 13.823 136.229 14.7675C136.229 15.5203 135.498 15.8967 134.114 15.8856C132.963 15.8635 131.247 15.5535 129.155 14.7675L128.424 17.6347C130.461 18.3985 132.576 18.7638 134.247 18.7638C137.535 18.7638 139.705 17.3469 139.705 14.5572C139.705 12.0443 137.922 11.1919 135.232 10.6162C135.109 10.5903 134.988 10.5654 134.872 10.5412L134.871 10.5412C133.247 10.2048 132.332 10.0152 132.332 9.19927C132.332 8.39115 133.018 8.04798 134.159 8.04798C135.277 8.04798 136.904 8.35794 138.731 8.91145L139.417 6.11071ZM148.727 14.0812H146.712V18.4318H143.491V5.59045H146.723V10.9262H147.354L151.616 5.59045H155.535L150.786 11.5019L155.834 18.4318H151.882L148.727 14.0812ZM72.5646 10.6384V8.31366H79.2066V5.57935H69.3321V18.4207H79.2066V15.6864H72.5646V13.3616H78.1107V10.6384H72.5646ZM118.461 8.31366V10.6384H124.007V13.3616H118.461V15.6864H125.103V18.4207H115.229V5.57935H125.103V8.31366H118.461Z" fill="#5D21D2"/>
</svg>
